<svg width="320" height="320" xmlns="http://www.w3.org/2000/svg" xmlns:xlink="http://www.w3.org/1999/xlink">
 <style>#yun-logo {
            stroke: black;
        }

        @media (prefers-color-scheme: dark) {
            #yun-logo {
                stroke: white;
            }
        }</style>
 <defs>
  <line stroke-linecap="round" y2="35" x2="0" y1="-35" x1="0" id="eye"/>
 </defs>
 <g>
  <title>background</title>
  <rect fill="none" id="canvas_background" height="402" width="582" y="-1" x="-1"/>
 </g>
 <g>
  <title>Layer 1</title>
  <polygon id="svg_1" points="50,250 50,150 100,150 100,100 300,100 300,150 350,150 350,250 300,250 300,300 100,300 100,250 50,250" fill="none" stroke-linejoin="round"/>
  <use id="svg_2" x="150" y="200" xlink:href="#eye"/>
  <use id="svg_3" x="250" y="200" xlink:href="#eye"/>
  <path d="m111.269478,119.730522c0,-2 -0.647095,-3.674103 -4,-5c-5.65654,-2.236862 -9.097885,-1.175568 -11,0c-4.253258,2.628654 -9.660645,7.384636 -18,16.999992c-9.828026,11.331802 -12.950249,21.944748 -13,31c-0.055214,10.049728 1.9534,18.020157 5,25c3.939919,9.026459 11.619247,20.344986 29,29c19.815086,9.867233 49.131371,12.400574 71.000008,10c18.328995,-2.012009 38.803925,-12.839813 58,-27c12.570465,-9.272736 17,-18 20,-27c3,-9 5,-20 5,-31c0,-9 -6.514145,-17.447617 -13,-23.999992c-7.478195,-7.554901 -15.048157,-12.938522 -24,-20c-10.05455,-7.931328 -21,-13 -29,-17c-6,-3 -9.596924,-5.999832 -16,-8c-6.749435,-2.10836 -13.06456,-2.800911 -18,-2c-3.121445,0.506538 -7,3 -10,4c-6,2 -11,5 -15,8c-4.000008,3 -7.723999,7.222733 -11.000008,11c-4.632973,5.341866 -7.881523,9.190277 -11,11c-3.867996,2.244682 -7.450493,3.450493 -10,6c-2.549507,2.549507 -5,5 -8,7l-4,2l-3,2l-1,0" id="svg_4" stroke-width="1.5" stroke="#000" fill="none"/>
  <path d="m120.269478,145.730515c-1,0 -1.418861,0.418854 -3,2c-1.581139,1.581146 -3.499031,5.953323 -4,14c-0.372826,5.988403 3,9 6,9c5,0 10.227333,-3.784912 14.000008,-8c4.270386,-4.771149 6.496231,-7.907791 7,-12c0.488739,-3.970032 -0.040329,-8.647339 -3,-12c-2.386169,-2.703003 -7,-3 -9,-3l-3.000008,0l-3,0l-2,0" id="svg_5" stroke-width="1.5" stroke="#000" fill="none"/>
  <path d="m200.269485,141.730515c-1,0 -2.44841,2.805649 -4,7c-1.430496,3.867004 -1.488739,7.029968 -1,11c0.503769,4.092209 2.528152,8.985336 8,11c5.708145,2.101669 11.651306,-0.287018 15,-4c3.905212,-4.330048 5.465515,-9.838089 7,-15c1.452942,-4.887634 2,-9 2,-12c0,-3 -2,-5 -5,-5c-5,0 -11,-1 -17,-2l-8,-1l-7,0l-2,0" id="svg_6" stroke-width="1.5" stroke="#000" fill="none"/>
 </g>
</svg>